<?xml version="1.0" standalone="no"?>
<!DOCTYPE svg PUBLIC "-//W3C//DTD SVG 20010904//EN"
 "http://www.w3.org/TR/2001/REC-SVG-20010904/DTD/svg10.dtd">
<svg version="1.0" xmlns="http://www.w3.org/2000/svg"
 width="3101.000000pt" height="3101.000000pt" viewBox="0 0 3101.000000 3101.000000"
 preserveAspectRatio="xMidYMid meet">
<metadata>
Created by potrace 1.11, written by Peter Selinger 2001-2013
</metadata>
<g transform="translate(0.000000,3101.000000) scale(0.100000,-0.100000)"
fill="#000000" stroke="none">
<path d="M21015 24444 c-673 -29 -1454 -139 -2047 -290 -543 -138 -907 -286
-1300 -527 -827 -510 -1351 -963 -1761 -1526 -294 -402 -535 -894 -871 -1781
-45 -118 -91 -231 -101 -250 -11 -19 -18 -38 -17 -42 1 -5 -2 -8 -8 -8 -5 0
-10 -7 -10 -15 0 -8 -4 -15 -10 -15 -5 0 -10 -6 -10 -14 0 -8 -7 -17 -16 -20
-9 -4 -14 -9 -10 -13 3 -3 -3 -13 -14 -20 -11 -8 -18 -18 -16 -22 3 -4 -8 -18
-24 -30 -17 -12 -29 -27 -27 -34 1 -6 -4 -11 -11 -9 -8 1 -11 -1 -8 -6 3 -5
-7 -20 -22 -33 -21 -19 -24 -20 -13 -4 8 11 -1 4 -20 -15 -18 -19 -37 -34 -41
-32 -5 1 -11 -5 -14 -13 -3 -8 -10 -12 -15 -9 -5 3 -12 -2 -15 -10 -3 -9 -10
-13 -15 -10 -5 3 -9 0 -9 -6 0 -6 -4 -8 -10 -5 -5 3 -10 2 -10 -2 0 -5 -10
-10 -22 -10 -13 -1 -24 -7 -26 -12 -2 -5 -9 -8 -17 -5 -7 3 -16 1 -19 -4 -3
-6 -15 -8 -25 -5 -10 3 -22 0 -25 -6 -4 -6 -29 -11 -56 -11 -27 0 -52 5 -56
11 -3 6 -15 9 -25 6 -10 -3 -22 -1 -25 5 -3 5 -12 7 -20 4 -8 -3 -14 -1 -14 5
0 6 -6 9 -14 6 -8 -3 -16 -1 -18 4 -2 5 -13 11 -26 12 -12 0 -22 5 -22 10 0 4
-4 6 -9 3 -5 -3 -12 1 -15 10 -3 8 -10 12 -16 9 -5 -3 -10 -1 -10 5 0 6 -4 9
-9 6 -5 -3 -12 1 -15 10 -4 9 -9 14 -12 11 -4 -3 -15 4 -25 16 -10 12 -18 18
-19 13 0 -5 -9 3 -21 18 -11 14 -24 24 -28 22 -9 -6 -121 107 -121 122 0 6
-10 19 -23 29 -13 10 -89 131 -169 268 -173 298 -263 446 -470 780 -420 677
-590 1012 -717 1410 -76 238 -111 453 -111 688 0 239 39 447 124 660 28 69 38
106 30 103 -26 -10 -231 -143 -306 -198 -463 -343 -776 -771 -1101 -1503 -94
-214 -274 -665 -322 -810 -132 -400 -236 -1001 -310 -1785 -16 -166 -22 -223
-26 -227 -1 -2 -2 -6 -3 -10 -1 -5 -5 -14 -10 -21 -4 -7 -5 -16 -2 -19 3 -3 1
-12 -5 -20 -6 -7 -8 -13 -4 -13 4 0 2 -6 -4 -13 -6 -8 -13 -24 -15 -38 -3 -13
-5 -26 -6 -29 -2 -3 -2 -8 -1 -12 0 -5 -4 -8 -10 -8 -6 0 -9 -7 -5 -15 3 -8 1
-15 -5 -15 -6 0 -7 -4 -4 -10 3 -5 2 -10 -2 -10 -10 0 -49 -80 -45 -92 1 -5
-3 -8 -9 -8 -5 0 -8 -4 -5 -9 3 -5 -1 -12 -10 -15 -9 -4 -14 -9 -11 -12 3 -4
-4 -15 -16 -26 -12 -11 -15 -17 -7 -13 15 6 -5 -13 -65 -62 -16 -14 -24 -22
-16 -17 9 5 12 3 7 -5 -4 -6 -11 -9 -16 -6 -5 3 -18 -3 -29 -14 -11 -11 -22
-17 -25 -13 -3 3 -6 0 -6 -6 0 -6 -7 -9 -17 -5 -11 4 -14 3 -9 -6 6 -9 0 -10
-20 -5 -15 4 -25 3 -21 -2 3 -5 -30 -9 -74 -9 -43 0 -79 4 -79 8 0 5 -10 5
-21 2 -16 -5 -19 -4 -14 6 6 9 2 11 -13 7 -14 -4 -20 -2 -15 5 4 6 0 8 -10 4
-10 -3 -17 -2 -17 4 0 6 -4 7 -10 4 -5 -3 -10 -1 -10 5 0 6 -4 8 -10 5 -5 -3
-10 -1 -10 5 0 6 -4 8 -10 5 -5 -3 -10 -1 -10 5 0 6 -4 9 -9 6 -5 -3 -12 1
-15 10 -3 8 -10 13 -15 10 -5 -3 -12 1 -15 10 -3 8 -10 13 -15 9 -6 -3 -15 4
-21 15 -6 11 -14 19 -18 18 -9 -2 -192 181 -192 193 0 5 -9 14 -20 21 -11 7
-20 19 -20 26 0 7 -7 15 -15 18 -8 4 -15 13 -15 20 0 8 -7 17 -15 20 -8 4 -15
12 -15 20 0 8 -4 14 -10 14 -5 0 -10 7 -10 15 0 8 -4 15 -10 15 -5 0 -10 7
-10 15 0 8 -4 15 -10 15 -5 0 -10 7 -10 15 0 8 -5 15 -11 15 -5 0 -8 4 -5 8 3
5 -3 18 -13 29 -10 11 -22 29 -25 41 -4 12 -12 22 -17 22 -6 0 -7 5 -4 10 3 6
2 10 -2 10 -5 0 -15 16 -22 35 -7 19 -17 35 -22 35 -6 0 -7 5 -4 10 3 6 1 10
-5 10 -6 0 -8 5 -5 10 3 6 1 10 -5 10 -6 0 -8 5 -5 10 3 6 1 10 -5 10 -6 0 -8
5 -5 10 3 6 1 10 -5 10 -6 0 -8 5 -5 10 3 6 1 10 -5 10 -6 0 -8 5 -5 10 3 6 1
10 -5 10 -6 0 -8 5 -5 10 3 6 1 10 -6 10 -7 0 -10 3 -6 6 3 4 -2 23 -12 43
-11 20 -20 41 -22 46 -1 6 -15 37 -30 70 -78 175 -170 545 -223 901 -51 344
-60 484 -61 884 l0 375 -66 -70 c-491 -519 -856 -1062 -1099 -1637 -78 -185
-81 -190 -107 -211 -13 -10 -22 -21 -21 -25 1 -4 -38 -46 -85 -94 -48 -47 -85
-81 -81 -75 3 7 -7 -1 -21 -18 -15 -16 -24 -23 -20 -15 4 8 -3 4 -15 -10 -12
-14 -19 -18 -15 -10 4 10 2 9 -8 -2 -8 -10 -17 -15 -20 -11 -4 3 -7 1 -7 -6 0
-7 -4 -9 -10 -6 -5 3 -10 2 -10 -4 0 -6 -7 -8 -15 -5 -8 4 -15 1 -15 -5 0 -6
-7 -8 -15 -5 -8 4 -15 1 -15 -5 0 -6 -12 -8 -32 -4 -22 4 -29 3 -24 -5 5 -9
-7 -12 -39 -12 -32 0 -44 4 -39 11 5 8 -3 10 -25 7 -17 -2 -31 -1 -31 4 0 5
-10 6 -21 3 -16 -5 -19 -4 -14 6 6 9 3 11 -8 6 -10 -3 -17 -2 -17 4 0 6 -5 7
-10 4 -6 -3 -10 -1 -10 6 0 7 -3 9 -7 6 -3 -4 -11 0 -17 8 -6 7 -18 15 -26 17
-8 2 -23 12 -33 23 -10 11 -15 13 -11 5 4 -8 -10 3 -30 25 -21 22 -34 33 -30
25 4 -8 -12 3 -34 24 -23 22 -39 43 -36 47 2 4 -11 20 -31 36 -19 15 -35 33
-35 40 0 7 -9 17 -20 23 -11 6 -19 14 -18 18 2 9 -164 341 -245 487 -304 553
-744 1117 -1237 1584 -240 227 -516 462 -755 642 -87 66 -83 66 -73 -4 42
-303 59 -764 39 -1077 -48 -747 -234 -1457 -572 -2182 -119 -256 -238 -473
-522 -948 -336 -562 -307 -513 -440 -750 -749 -1338 -1142 -2468 -1252 -3600
-22 -229 -30 -683 -16 -910 40 -642 175 -1271 387 -1808 378 -956 1054 -1717
2144 -2413 135 -85 519 -314 541 -321 6 -2 15 -81 21 -178 l11 -175 191 -295
191 -295 248 -239 247 -239 298 -69 c163 -38 403 -93 532 -124 l235 -55 310
-19 c1030 -64 1043 -64 1171 -52 l121 13 80 -83 c43 -46 117 -124 164 -173 78
-84 112 -109 448 -330 l364 -239 649 -67 649 -67 802 -17 801 -16 150 37 150
37 171 -176 170 -176 192 -50 c187 -48 194 -51 340 -134 493 -282 795 -371
1378 -408 389 -24 640 6 986 116 147 48 181 64 177 84 -3 13 -16 16 -83 14
l-80 -3 185 64 184 63 151 -62 c141 -58 178 -69 607 -165 l456 -102 564 175
c309 97 747 230 973 296 225 67 415 127 421 133 7 7 114 159 239 338 125 179
229 327 231 329 5 5 -3 7 489 -121 l380 -99 650 8 650 8 666 385 667 385 128
258 c71 141 133 257 139 257 5 0 75 -11 154 -25 l144 -24 396 123 c385 120
407 129 816 307 l420 184 230 308 c127 169 245 335 264 370 l34 62 135 65
c684 329 1335 802 1952 1420 1076 1077 1480 1868 1614 3160 70 671 59 1095
-45 1675 -74 419 -178 812 -468 1779 -227 752 -290 978 -367 1296 -137 570
-200 1003 -211 1450 -15 616 83 1129 312 1632 35 76 58 135 51 131 -42 -25
-268 -178 -346 -236 -560 -414 -1087 -977 -1597 -1707 -127 -182 -366 -543
-543 -820 -90 -140 -265 -410 -390 -600 -196 -299 -283 -434 -333 -515 -7 -10
-22 -28 -35 -38 -12 -10 -20 -22 -17 -27 3 -4 -11 -20 -30 -34 -19 -15 -34
-30 -33 -34 1 -4 -45 -54 -103 -111 -57 -58 -98 -96 -90 -85 7 10 -4 1 -24
-21 -21 -22 -35 -34 -30 -27 4 8 -9 3 -28 -9 -19 -13 -33 -27 -31 -31 3 -4 -2
-5 -10 -2 -9 4 -18 -1 -22 -10 -3 -9 -10 -14 -14 -11 -12 7 -41 -6 -35 -15 3
-5 -5 -6 -17 -2 -11 3 -19 1 -16 -4 4 -5 -24 -8 -65 -6 -108 5 -116 6 -109 16
3 5 -2 7 -11 3 -10 -4 -16 -2 -14 5 1 6 -4 13 -12 16 -9 3 -11 0 -6 -9 4 -8
-8 2 -28 20 -46 43 -49 56 -4 15 l32 -29 -35 40 c-53 61 -54 61 -45 46 5 -9 4
-12 -3 -7 -6 4 -9 13 -6 21 4 8 -1 18 -10 21 -9 3 -13 10 -10 15 3 5 0 9 -6 9
-6 0 -8 5 -5 10 3 6 1 10 -5 10 -6 0 -8 5 -5 10 3 6 1 10 -5 10 -6 0 -8 5 -5
10 3 6 2 10 -4 10 -6 0 -8 7 -5 15 4 8 1 15 -5 15 -6 0 -8 6 -5 14 3 7 -1 20
-9 27 -7 8 -12 19 -10 26 2 6 0 14 -6 17 -6 4 -8 13 -4 21 3 8 0 15 -6 15 -6
0 -8 6 -5 14 3 8 1 17 -5 20 -6 4 -8 13 -5 20 3 8 1 17 -5 20 -6 4 -8 13 -5
21 3 8 2 20 -2 27 -8 12 -13 38 -15 68 0 8 -3 22 -7 30 -13 34 -19 124 -32
475 -17 451 -70 1201 -105 1472 -73 567 -208 1026 -406 1372 -100 177 -184
287 -334 436 -158 158 -273 245 -445 334 -116 60 -299 136 -307 127 -3 -3 5
-74 16 -159 56 -404 45 -758 -35 -1071 -14 -55 -31 -111 -39 -126 -8 -15 -11
-30 -8 -34 4 -3 1 -6 -6 -6 -7 0 -9 -4 -6 -10 3 -5 2 -10 -3 -10 -5 0 -19 -24
-33 -52 -13 -29 -27 -55 -32 -56 -4 -2 -5 -8 -1 -13 3 -5 0 -9 -6 -9 -6 0 -8
-4 -5 -10 3 -5 2 -10 -4 -10 -6 0 -13 -11 -17 -25 -3 -14 -10 -25 -16 -25 -5
0 -6 -4 -3 -10 3 -5 2 -10 -4 -10 -6 0 -13 -11 -17 -25 -3 -14 -10 -25 -16
-25 -5 0 -6 -4 -3 -10 3 -5 1 -10 -4 -10 -6 0 -11 -7 -11 -15 0 -8 -4 -15 -10
-15 -5 0 -12 -11 -16 -25 -3 -14 -10 -25 -15 -25 -5 0 -9 -7 -9 -15 0 -8 -4
-15 -10 -15 -5 0 -10 -7 -10 -15 0 -8 -4 -15 -10 -15 -5 0 -10 -7 -10 -15 0
-8 -4 -15 -10 -15 -5 0 -10 -7 -10 -15 0 -8 -4 -15 -10 -15 -5 0 -10 -6 -10
-14 0 -8 -7 -16 -15 -20 -8 -3 -15 -12 -15 -20 0 -7 -7 -16 -15 -20 -8 -3 -15
-12 -15 -21 0 -8 -5 -15 -10 -15 -6 0 -14 -8 -17 -17 -6 -16 -21 -34 -63 -78
-11 -12 -20 -24 -20 -29 0 -12 -130 -138 -315 -305 -88 -80 -250 -231 -360
-337 -110 -106 -254 -239 -320 -296 -185 -159 -480 -387 -531 -410 -13 -6 -24
-15 -24 -20 0 -5 -4 -6 -10 -3 -5 3 -10 2 -10 -3 0 -10 -60 -38 -72 -34 -5 1
-8 -3 -8 -9 0 -5 -4 -7 -10 -4 -5 3 -10 1 -10 -6 0 -7 -3 -9 -7 -6 -3 4 -17 0
-30 -8 -13 -9 -23 -13 -23 -10 0 3 -10 0 -22 -7 -13 -7 -26 -13 -30 -14 -5 -1
-10 -3 -13 -4 -3 -1 -9 -3 -14 -4 -5 0 -12 -4 -16 -8 -4 -4 -13 -4 -20 -2 -7
3 -16 0 -20 -5 -3 -6 -11 -9 -16 -6 -5 4 -15 3 -21 -1 -14 -9 -41 -14 -73 -15
-11 -1 -42 -5 -69 -10 -38 -7 -61 -5 -115 10 -97 29 -245 60 -255 53 -5 -3 -6
0 -2 6 4 7 1 12 -8 12 -9 0 -16 5 -16 11 0 5 -4 8 -9 5 -5 -3 -12 1 -15 10 -3
8 -10 13 -15 10 -5 -3 -11 1 -15 9 -3 8 -10 15 -15 15 -19 0 -153 135 -165
165 -3 8 -10 15 -16 15 -5 0 -10 7 -10 15 0 9 -7 18 -15 21 -8 4 -13 9 -10 14
2 4 -4 16 -14 27 -10 11 -22 29 -25 41 -4 12 -12 22 -17 22 -6 0 -7 5 -4 10 3
6 3 10 -2 10 -33 0 -222 593 -291 915 -82 378 -97 737 -47 1110 11 87 14 103
30 185 78 412 402 1241 660 1690 203 353 469 726 749 1050 195 225 536 559
649 635 39 27 45 34 30 39 -21 8 -284 15 -398 10z m-3830 -3648 c20 -20 32
-36 28 -36 -4 0 -2 -4 4 -8 7 -4 15 -26 18 -47 7 -45 7 -208 1 -300 -22 -318
-29 -1187 -13 -1465 8 -135 10 -164 21 -315 l6 -80 -82 -60 c-358 -259 -714
-773 -841 -1214 l-24 -85 -261 -66 -261 -66 5 36 c2 19 6 46 8 60 3 14 7 42
10 63 8 50 17 108 22 132 8 49 13 83 19 120 3 22 7 47 10 55 4 15 12 59 20
110 2 14 7 36 10 50 3 14 7 39 10 55 11 75 15 96 35 190 12 55 23 110 26 123
2 12 6 32 9 45 3 12 10 43 15 70 43 203 111 486 126 522 7 17 15 47 18 68 3
21 11 47 16 57 6 10 10 30 10 44 0 14 5 28 10 31 6 3 10 19 10 35 0 16 4 31 9
34 5 4 12 25 16 49 4 23 12 48 17 55 6 6 7 12 3 12 -4 0 -3 6 2 13 6 6 16 37
23 67 7 30 15 60 19 65 3 6 6 13 7 18 1 4 3 9 4 12 1 3 4 10 5 15 1 6 4 12 5
15 1 3 4 10 5 15 1 6 4 12 5 15 1 3 4 10 5 15 1 6 3 11 4 13 2 1 4 11 6 22 2
12 16 46 29 78 14 31 27 67 30 81 2 13 11 38 20 55 9 17 14 31 11 31 -3 0 4
18 15 40 11 22 18 40 14 40 -3 0 1 11 10 25 9 14 14 25 10 25 -3 0 1 11 10 25
9 14 14 25 11 25 -3 0 0 10 7 23 7 12 13 24 13 27 1 3 7 19 15 35 18 40 44 99
70 160 12 28 31 70 43 95 35 76 232 475 237 480 11 11 31 46 41 73 6 15 15 27
20 27 5 0 12 7 16 17 9 22 69 83 82 83 6 0 11 5 11 11 0 5 5 7 10 4 6 -3 10
-2 10 4 0 12 24 17 72 14 28 -1 47 -11 73 -37z m-4508 -2004 c33 -10 130 -107
134 -134 3 -18 5 -24 17 -45 7 -13 10 -23 7 -23 -3 0 2 -14 11 -31 9 -17 18
-41 20 -53 5 -29 73 -198 86 -213 6 -7 8 -13 4 -13 -4 0 2 -17 13 -37 10 -21
19 -41 20 -46 0 -4 19 -41 41 -82 22 -41 38 -75 35 -75 -6 0 54 -123 64 -130
4 -3 22 -36 40 -75 19 -38 37 -72 40 -75 3 -3 13 -18 21 -35 8 -16 17 -32 20
-35 3 -3 12 -18 20 -35 8 -16 21 -36 28 -43 6 -7 12 -20 12 -28 0 -8 5 -14 10
-14 6 0 10 -6 10 -14 0 -8 6 -21 14 -28 7 -8 21 -30 31 -48 10 -19 21 -37 25
-40 4 -3 20 -27 35 -55 44 -76 140 -219 159 -234 9 -7 16 -20 16 -27 0 -8 5
-14 10 -14 6 0 10 -6 10 -13 0 -8 10 -22 21 -33 45 -40 43 -59 -14 -134 -200
-263 -301 -578 -296 -924 l2 -140 -54 -34 c-30 -20 -151 -93 -269 -165 l-215
-129 -14 54 c-8 32 -14 115 -14 208 -2 171 12 259 64 407 32 91 36 121 15 129
-17 6 -183 -101 -278 -180 -247 -205 -388 -514 -388 -852 l0 -92 -112 -50
c-62 -28 -146 -65 -186 -81 l-73 -30 6 47 c4 26 9 56 13 67 6 22 7 29 17 90 3
22 10 57 16 78 6 21 12 51 14 68 5 28 9 58 19 117 3 15 7 43 10 62 3 19 8 44
10 56 4 20 15 97 21 154 5 36 16 130 21 165 8 63 27 247 40 395 3 36 7 83 9
105 3 22 7 72 10 110 3 39 7 93 10 120 3 28 8 82 11 120 3 39 7 84 9 100 2 17
6 59 10 95 11 114 12 124 18 155 4 17 9 57 12 90 3 33 7 71 10 84 2 12 7 42 9
65 3 22 8 52 11 66 2 13 8 42 11 65 13 84 23 139 35 195 6 25 11 55 13 67 2
12 7 26 10 31 3 5 10 39 16 76 6 37 19 93 30 124 11 32 21 68 24 82 2 14 9 36
14 50 5 14 10 28 11 32 1 4 3 13 5 20 3 7 8 27 12 43 8 34 9 35 17 55 8 21 88
263 91 275 1 6 7 20 14 32 7 12 12 29 12 37 0 9 5 16 11 16 5 0 7 5 4 10 -3 6
-2 10 3 10 4 0 18 18 31 40 12 22 29 40 37 40 8 0 14 4 14 10 0 20 91 35 137
22z m5061 -154 c-214 -253 -388 -714 -439 -1158 -11 -101 -7 -321 7 -383 6
-24 2 -29 -28 -41 -55 -23 -298 -82 -474 -115 -189 -35 -460 -68 -471 -57 -17
16 -15 193 2 277 52 254 233 622 433 878 240 309 517 520 792 605 71 22 110
30 214 45 5 0 -12 -23 -36 -51z m2432 -313 c58 -15 111 -31 119 -35 9 -5 -13
-15 -60 -29 -296 -90 -634 -383 -890 -774 -136 -208 -239 -440 -270 -609 l-12
-68 -153 0 c-289 0 -556 52 -836 162 l-110 43 6 61 c34 337 471 797 1011 1064
336 166 564 221 895 216 174 -3 206 -6 300 -31z m-4546 -142 c-95 -191 -133
-370 -141 -655 -8 -279 20 -495 90 -687 36 -101 49 -86 -148 -181 -208 -101
-535 -225 -684 -260 -64 -15 -71 -9 -99 80 -23 76 -22 309 2 445 56 309 201
655 372 883 117 156 277 303 412 379 67 38 217 103 238 103 6 0 -13 -48 -42
-107z m1757 -535 c0 -13 3 -32 5 -43 14 -58 33 -151 40 -194 2 -19 9 -42 14
-52 18 -34 11 -39 -51 -39 l-62 0 6 98 c7 118 28 252 39 252 4 0 8 -10 9 -22z
m4204 -89 c115 -14 237 -49 328 -95 l71 -36 -69 -18 c-427 -109 -1174 -701
-1381 -1093 -41 -78 -29 -77 -184 -20 -292 108 -750 341 -750 383 0 57 154
224 320 347 497 367 1195 590 1665 532z m-7569 -422 c-63 -140 -106 -338 -106
-482 0 -151 39 -332 106 -487 l35 -82 -43 -37 c-110 -97 -322 -234 -463 -300
-115 -54 -117 -54 -137 8 -44 131 -47 362 -7 556 82 404 279 693 575 846 32
17 60 31 61 31 1 0 -9 -24 -21 -53z m10947 16 c-7 -2 -19 -2 -25 0 -7 3 -2 5
12 5 14 0 19 -2 13 -5z m70 0 c-7 -2 -19 -2 -25 0 -7 3 -2 5 12 5 14 0 19 -2
13 -5z m-16652 -60 c8 -7 19 -13 23 -13 16 0 77 -78 103 -130 14 -30 30 -57
33 -60 4 -3 29 -50 55 -105 27 -55 51 -102 54 -105 3 -3 15 -23 26 -45 11 -22
22 -42 25 -45 4 -3 14 -21 23 -40 21 -42 40 -73 48 -80 4 -3 9 -15 13 -27 4
-13 12 -23 17 -23 5 0 9 -6 9 -13 0 -8 9 -24 20 -37 11 -13 20 -28 20 -35 0
-6 9 -20 19 -32 10 -11 27 -35 36 -54 23 -44 112 -178 138 -206 11 -12 25 -31
31 -41 24 -41 149 -212 186 -254 8 -9 24 -28 35 -43 20 -27 32 -40 88 -109 85
-102 187 -214 315 -343 l103 -105 -73 -48 c-136 -90 -240 -193 -298 -295 -35
-62 -76 -176 -85 -236 l-7 -45 -146 -43 c-208 -61 -189 -60 -203 -10 -19 72
-13 184 15 308 15 63 25 120 22 127 -9 24 -36 15 -120 -40 -196 -127 -282
-272 -295 -493 l-6 -103 -132 -64 -133 -65 -12 42 c-8 25 -13 96 -13 177 0
114 -2 135 -16 138 -21 4 -140 -107 -179 -168 -50 -78 -71 -160 -69 -265 l2
-89 -102 -69 c-57 -38 -104 -67 -106 -65 -2 2 3 32 12 67 14 57 14 64 0 78
-14 14 -19 14 -59 -1 -76 -30 -166 -96 -241 -176 -87 -93 -133 -168 -168 -272
-31 -90 -63 -131 -144 -180 -86 -52 -171 -133 -243 -230 l-63 -86 -103 53
c-112 57 -263 108 -370 126 -41 7 -124 9 -205 7 -111 -5 -151 -10 -218 -32
-45 -15 -85 -31 -88 -36 -3 -5 22 -23 56 -41 76 -41 144 -106 169 -162 23 -50
26 -129 5 -186 l-14 -41 27 -6 c54 -13 113 -55 128 -91 20 -47 10 -86 -33
-134 -31 -35 -33 -39 -17 -45 91 -29 119 -58 118 -117 0 -23 -11 -62 -23 -85
-12 -24 -21 -46 -19 -48 3 -2 34 12 71 32 65 34 171 63 234 64 l32 0 0 -125
c0 -69 3 -140 6 -158 l6 -32 -348 -204 c-290 -170 -360 -216 -419 -273 -72
-68 -94 -81 -94 -53 0 8 -3 15 -8 15 -4 0 -13 15 -21 33 -8 17 -17 34 -20 37
-4 3 -19 32 -36 64 -16 32 -39 74 -52 93 -13 19 -23 38 -23 43 0 6 -4 10 -10
10 -5 0 -10 5 -10 11 0 14 -101 183 -112 187 -4 2 -8 9 -8 16 0 7 -13 30 -30
51 -16 21 -30 43 -30 49 0 6 -11 24 -25 40 -14 16 -25 34 -25 41 0 6 -8 20
-19 31 -10 11 -22 30 -25 42 -4 12 -12 22 -17 22 -5 0 -9 6 -9 14 0 8 -6 21
-12 28 -19 20 -170 308 -174 333 -1 6 -15 37 -30 70 -15 33 -28 65 -30 70 -1
6 -8 24 -15 40 -6 17 -13 35 -15 40 -2 6 -15 46 -30 90 -28 85 -32 97 -31 105
0 3 -5 15 -11 26 -6 12 -14 36 -17 55 -6 35 -20 92 -35 144 -9 32 -29 126 -36
175 -2 17 -6 44 -9 60 -2 17 -7 50 -11 73 -3 23 -8 56 -9 72 -2 17 -7 68 -11
115 -10 107 -11 577 -1 690 15 169 21 218 36 310 5 36 13 88 16 115 10 75 12
90 21 127 8 38 11 56 19 118 4 24 9 48 12 54 3 5 8 19 10 30 8 54 24 121 57
246 19 74 38 150 41 169 3 19 10 42 15 52 6 10 10 29 10 43 0 14 5 28 10 31 6
3 10 19 10 34 0 15 3 31 8 35 4 4 7 11 8 14 0 4 7 27 14 52 17 57 16 52 22 70
14 38 100 297 103 310 2 8 4 16 5 18 2 1 3 5 5 10 1 4 4 14 8 22 15 39 42 116
43 123 1 4 3 9 4 12 1 3 3 9 4 13 0 4 8 26 18 47 25 62 40 104 38 107 -1 2 12
27 29 56 17 29 31 57 31 62 0 6 4 10 9 10 5 0 11 9 14 21 3 11 15 23 26 26 12
3 21 9 21 14 0 14 80 31 113 23 18 -4 35 -8 38 -8 3 -1 21 -19 40 -41 19 -22
37 -42 42 -43 4 -2 5 -8 1 -13 -3 -5 -1 -9 3 -9 5 0 9 -9 10 -20 1 -11 9 -35
17 -52 9 -17 16 -41 16 -53 0 -13 6 -45 14 -71 8 -27 20 -71 26 -99 13 -58 43
-180 60 -245 7 -25 16 -53 21 -62 5 -10 9 -29 9 -42 0 -14 4 -27 9 -30 4 -3
11 -25 15 -48 4 -23 12 -48 18 -55 6 -7 7 -13 3 -13 -4 0 -3 -6 3 -12 6 -7 10
-15 9 -18 -1 -5 48 -158 60 -190 3 -8 7 -21 9 -27 2 -13 90 -233 104 -263 4
-8 22 -43 39 -77 17 -35 29 -63 26 -63 -8 0 36 -84 49 -92 6 -5 7 -8 1 -8 -6
0 -6 -3 1 -8 6 -4 23 -32 37 -62 26 -55 47 -91 58 -100 3 -3 20 -30 37 -61 17
-30 41 -64 52 -74 11 -10 20 -24 20 -32 0 -7 7 -16 15 -19 8 -4 15 -11 15 -18
0 -6 8 -19 18 -28 9 -9 31 -33 47 -54 38 -48 162 -172 204 -204 18 -14 41 -33
52 -42 10 -10 21 -18 24 -18 7 0 100 -64 103 -72 2 -4 19 -12 38 -18 19 -6 34
-15 34 -19 0 -9 124 -66 158 -72 4 -1 23 -9 42 -19 30 -15 89 -34 170 -55 8
-2 35 -9 60 -15 62 -17 124 -17 143 -2 16 13 16 70 2 162 -9 57 -13 341 -4
380 4 19 10 60 13 90 3 30 8 69 12 85 3 17 10 50 14 75 15 77 52 224 61 242 5
10 9 29 9 42 0 14 4 27 9 30 5 4 12 25 16 49 4 23 10 47 14 52 3 6 6 12 7 15
0 3 3 12 7 20 5 12 21 66 33 113 1 4 3 9 4 12 1 3 3 8 5 13 1 4 4 14 8 22 5
13 29 96 31 110 1 3 4 10 7 15 4 6 10 26 13 45 4 19 11 44 16 55 5 11 12 34
16 50 4 17 9 35 10 40 2 6 9 30 15 55 6 25 15 54 20 65 11 25 48 174 60 240
11 59 15 77 28 131 6 22 13 60 17 85 3 24 7 53 9 64 14 76 22 135 40 295 3 25
7 52 9 60 1 8 6 37 11 65 4 27 16 64 26 82 21 37 61 79 72 76 4 -2 7 1 7 6 0
24 97 12 131 -16z m14513 -345 c27 -11 78 -52 76 -60 -1 -2 1 -10 4 -18 22
-67 27 -92 22 -107 -3 -10 -8 -38 -11 -63 -7 -47 -10 -64 -20 -115 -4 -16 -8
-43 -10 -60 -2 -16 -4 -33 -4 -37 -1 -3 -25 0 -53 8 -95 25 -290 54 -432 64
-76 5 -141 11 -143 14 -4 4 80 98 157 175 60 61 130 121 140 121 6 0 10 5 10
10 0 6 12 16 28 23 15 6 29 15 32 19 22 30 155 47 204 26z m-8909 -128 c9 -16
20 -30 25 -30 6 0 10 -6 10 -13 0 -7 9 -19 20 -27 11 -8 20 -18 20 -23 0 -5 6
-14 13 -21 6 -7 23 -28 37 -46 14 -18 31 -39 38 -46 10 -10 -2 -22 -65 -63
l-78 -50 -12 33 c-16 49 -43 212 -43 268 0 55 13 61 35 18z m8535 -300 c223
-20 394 -58 549 -122 l76 -32 -85 -12 c-312 -46 -722 -276 -1022 -576 -87 -86
-201 -230 -213 -268 -3 -11 -13 -20 -21 -20 -65 0 -532 274 -736 432 -87 67
-87 68 -28 153 127 185 397 329 745 400 245 50 501 65 735 45z m-9715 -111
c-62 -180 -84 -418 -55 -580 14 -78 56 -211 82 -263 l20 -40 -33 -27 c-44 -36
-221 -135 -329 -183 -95 -43 -251 -98 -258 -91 -11 11 -13 280 -3 375 31 286
122 485 305 665 77 76 283 232 293 222 2 -2 -8 -37 -22 -78z m10120 -337 c0
-190 4 -273 19 -397 13 -107 24 -181 32 -219 15 -67 16 -66 -48 -66 -59 0 -59
0 -216 109 -138 96 -511 335 -536 344 -17 6 4 26 117 110 198 148 373 246 552
308 44 15 80 28 80 28 0 1 0 -97 0 -217z m-11180 -400 c-70 -257 -77 -408 -27
-557 l19 -56 -31 -23 c-68 -51 -190 -102 -316 -132 -86 -20 -235 -30 -244 -16
-9 15 40 258 74 361 73 225 202 399 368 498 45 27 194 94 199 90 1 -2 -17 -76
-42 -165z m-965 -206 c0 -2 -20 -55 -44 -118 -25 -62 -50 -142 -56 -178 -14
-73 -7 -184 15 -257 8 -26 15 -51 15 -55 0 -27 -203 -101 -323 -117 -128 -18
-126 -18 -120 32 30 236 150 466 301 577 86 63 212 132 212 116z m12308 -127
c213 -23 425 -81 595 -163 107 -51 228 -129 274 -178 l32 -33 -177 0 c-135 0
-197 -4 -262 -19 -269 -59 -502 -181 -688 -360 l-92 -89 -53 36 c-149 103
-435 364 -530 482 l-39 50 68 63 c184 171 512 251 872 211z m-13256 -115 c-52
-131 -62 -177 -62 -276 0 -73 9 -128 34 -204 5 -18 -3 -25 -71 -57 -83 -39
-208 -71 -312 -81 l-64 -6 7 69 c7 81 47 223 80 289 41 80 109 165 183 225 83
67 236 162 241 149 1 -5 -15 -54 -36 -108z m198 -94 c20 -19 64 -60 99 -90
116 -101 135 -120 125 -129 -5 -4 -97 -22 -204 -40 -107 -18 -205 -35 -217
-38 -20 -4 -22 0 -28 62 -10 87 7 185 47 285 l32 79 56 -47 c30 -26 71 -63 90
-82z m-1062 -151 c-33 -136 -31 -277 6 -377 l27 -73 -23 -19 c-63 -52 -251
-130 -316 -130 l-25 0 6 138 c9 205 45 305 147 412 48 50 189 153 198 145 2
-1 -7 -45 -20 -96z m17712 -38 c13 -3 80 -69 80 -79 0 -7 4 -12 9 -12 9 0 19
-31 29 -95 9 -56 8 -651 -1 -760 -12 -141 -23 -251 -33 -330 -10 -81 -12 -98
-18 -137 -3 -21 -8 -55 -11 -75 -3 -21 -8 -45 -10 -53 -3 -8 -7 -31 -9 -50 -3
-19 -12 -69 -21 -110 -9 -41 -18 -84 -20 -95 -2 -11 -15 -63 -29 -115 -14 -52
-28 -110 -31 -129 -3 -19 -10 -42 -15 -52 -6 -10 -10 -28 -10 -42 0 -13 -3
-27 -7 -31 -5 -4 -8 -11 -9 -14 0 -4 -3 -14 -6 -22 -3 -8 -14 -44 -23 -80 -9
-36 -22 -71 -27 -77 -6 -7 -8 -13 -4 -13 3 0 -5 -25 -19 -56 -14 -31 -27 -68
-30 -81 -2 -14 -8 -30 -13 -36 -8 -10 -32 -73 -37 -97 -2 -6 -22 -54 -46 -105
-20 -45 -42 -97 -43 -105 -3 -13 -160 -326 -167 -330 -4 -3 -15 -24 -25 -47
-10 -24 -22 -43 -26 -43 -5 0 -8 -4 -8 -9 0 -5 -18 -38 -40 -72 -22 -35 -54
-90 -71 -121 -18 -32 -36 -58 -40 -58 -5 0 -9 -7 -9 -15 0 -8 -4 -15 -10 -15
-5 0 -10 -7 -10 -15 0 -8 -4 -15 -10 -15 -5 0 -10 -7 -10 -15 0 -42 -23 0 -75
138 -32 83 -63 163 -69 176 -8 18 -125 83 -455 254 -308 159 -558 298 -815
451 -370 221 -371 222 -371 255 0 29 4 34 25 37 14 1 43 5 65 9 22 3 58 8 79
11 22 3 43 7 47 9 3 3 28 7 55 10 26 4 80 18 118 31 39 14 76 27 81 28 26 6
204 99 230 121 17 14 35 25 42 25 6 0 13 4 15 8 2 5 30 28 63 52 33 24 71 53
84 64 49 41 347 342 381 384 19 24 49 58 65 76 30 33 81 96 140 172 11 15 28
35 38 45 9 11 17 24 17 29 0 6 4 10 9 10 5 0 23 23 41 50 18 28 36 50 41 50 5
0 9 7 9 15 0 9 7 18 15 21 8 4 15 13 15 20 0 8 7 17 15 20 8 4 15 11 15 16 0
6 18 32 40 58 22 26 40 52 40 57 0 5 11 20 25 33 14 13 25 29 25 35 0 6 11 22
25 35 14 13 25 27 25 32 0 5 4 14 10 21 47 57 60 76 60 86 0 6 5 11 10 11 6 0
10 4 10 9 0 5 25 43 55 83 30 40 55 77 55 81 0 11 82 131 92 135 4 2 8 10 8
18 0 8 4 14 8 14 5 0 27 33 51 74 23 41 51 82 62 91 10 10 19 22 19 27 0 12
76 88 89 88 6 0 11 5 11 11 0 5 5 7 10 4 6 -3 10 -2 10 4 0 5 8 11 18 13 14 3
86 2 102 -1z m-18355 -635 l39 -79 -47 -42 c-47 -41 -193 -122 -203 -112 -3 3
-12 49 -21 104 -28 176 5 291 121 411 l61 64 5 -133 c5 -131 6 -136 45 -213z
m7439 119 c32 -9 75 -27 95 -42 36 -26 91 -92 91 -110 0 -4 -21 -19 -47 -33
-68 -36 -165 -136 -210 -218 l-39 -71 -26 53 c-59 121 -59 239 2 372 33 73 37
74 134 49z m-7939 -292 c-39 -155 -48 -340 -21 -428 9 -27 16 -55 16 -61 0
-12 -133 -66 -220 -89 -74 -20 -154 -19 -174 1 -78 78 41 342 224 498 47 40
154 105 174 106 4 0 5 -12 1 -27z m1505 -93 c-40 -79 -13 -154 66 -180 l36
-12 -41 -25 c-43 -25 -71 -67 -71 -104 0 -33 35 -83 80 -114 39 -27 44 -45 13
-45 -67 0 -252 -70 -287 -109 -18 -20 -19 -19 -95 33 -42 29 -97 65 -123 80
-27 15 -48 28 -48 30 0 1 7 27 16 57 53 179 174 304 381 395 43 18 81 34 86
34 4 0 -2 -18 -13 -40z m-899 -107 c-86 -141 -107 -387 -46 -545 9 -24 -78
-33 -189 -19 -123 15 -193 39 -238 82 -48 45 -48 66 -3 157 56 111 194 240
335 312 40 21 142 58 162 59 4 1 -5 -20 -21 -46z m14858 11 c390 -87 774 -581
819 -1055 l8 -80 -40 48 c-164 199 -383 343 -588 389 -65 15 -245 21 -352 11
-27 -2 -30 2 -48 53 -55 158 -101 425 -96 560 l3 85 50 6 c64 8 162 1 244 -17z
m-11213 -103 c113 -51 160 -194 119 -356 -24 -95 -166 -370 -233 -453 -49 -60
-111 -95 -169 -94 -95 2 -152 40 -195 131 -117 244 55 689 299 777 54 19 131
17 179 -5z m5854 -482 c75 -17 141 -67 175 -135 28 -55 30 -67 30 -169 0 -144
-12 -181 -152 -461 -127 -256 -260 -348 -429 -299 -77 22 -151 94 -185 181
-30 76 -36 236 -12 338 62 273 261 514 451 546 66 11 71 11 122 -1z m-11585
-60 c257 -47 473 -158 644 -332 l53 -55 -64 -63 c-91 -91 -112 -139 -113 -262
0 -75 -3 -96 -13 -92 -109 41 -262 44 -367 7 -32 -12 -59 -22 -60 -22 0 0 0
27 0 61 0 57 -2 63 -36 93 -20 18 -41 35 -48 37 -10 4 -8 15 8 44 12 23 21 58
21 82 0 35 -7 50 -36 83 -20 21 -53 47 -75 57 -38 16 -39 18 -32 52 24 111 -7
202 -100 287 l-61 57 84 -7 c47 -4 134 -17 195 -27z m2927 -178 c67 -25 141
-151 157 -266 13 -91 22 -346 12 -320 -5 11 -11 70 -15 130 -8 140 -28 232
-65 309 -35 71 -54 95 -106 130 -37 26 -28 34 17 17z m814 -97 c-3 -9 -6 -31
-6 -50 l0 -34 -89 0 c-72 0 -163 -11 -274 -33 -8 -1 -13 15 -15 44 l-3 47 88
12 c82 12 211 25 277 29 22 1 27 -3 22 -15z m445 1 c13 -5 13 -17 3 -88 -6
-45 -12 -83 -13 -84 0 -1 -27 7 -58 18 -75 26 -227 59 -275 59 l-38 0 0 57 0
56 183 -6 c101 -3 190 -9 198 -12z m-1303 -43 c17 -22 15 -57 -4 -76 -23 -24
-70 -20 -88 6 -23 32 -20 54 11 77 28 23 59 20 81 -7z m1494 13 c40 -9 115
-27 166 -42 84 -23 93 -28 89 -47 -2 -12 -15 -70 -27 -131 -13 -60 -26 -114
-30 -118 -4 -5 -32 7 -62 26 -30 20 -103 59 -162 89 l-108 53 7 55 c12 118 16
130 35 130 10 0 52 -7 92 -15z m-1082 -64 l0 -48 -82 -30 -83 -30 -12 51 c-7
28 -9 54 -5 58 9 8 141 46 165 47 14 1 17 -8 17 -48z m1528 -75 c151 -62 278
-122 286 -134 4 -6 -24 -78 -62 -159 -38 -81 -74 -162 -81 -179 l-12 -32 -128
102 c-70 55 -141 112 -158 126 l-31 25 13 73 c24 135 46 222 56 222 6 0 58
-20 117 -44z m-1910 2 c-6 -18 -28 -21 -28 -4 0 9 7 16 16 16 9 0 14 -5 12
-12z m735 -5 c-13 -2 -35 -2 -50 0 -16 2 -5 4 22 4 28 0 40 -2 28 -4z m184 1
c-3 -3 -12 -4 -19 -1 -8 3 -5 6 6 6 11 1 17 -2 13 -5z m-304 -11 c-7 -2 -19
-2 -25 0 -7 3 -2 5 12 5 14 0 19 -2 13 -5z m370 0 c-7 -2 -19 -2 -25 0 -7 3
-2 5 12 5 14 0 19 -2 13 -5z m-440 -10 c-7 -2 -19 -2 -25 0 -7 3 -2 5 12 5 14
0 19 -2 13 -5z m500 0 c-7 -2 -19 -2 -25 0 -7 3 -2 5 12 5 14 0 19 -2 13 -5z
m-556 -9 c-3 -3 -12 -4 -19 -1 -8 3 -5 6 6 6 11 1 17 -2 13 -5z m600 0 c-3 -3
-12 -4 -19 -1 -8 3 -5 6 6 6 11 1 17 -2 13 -5z m-61 -28 c154 -31 350 -109
469 -187 l65 -43 -32 -33 -32 -33 -76 75 -75 75 -230 -76 c-127 -42 -234 -80
-238 -84 -4 -4 -13 -37 -19 -74 -9 -53 -14 -65 -27 -62 -9 3 -88 19 -176 36
-88 17 -168 33 -177 36 -9 3 -60 59 -114 125 l-97 120 -24 -23 -24 -23 3 40
c3 39 4 40 73 67 83 32 221 65 325 78 97 11 315 4 406 -14z m101 18 c-3 -3
-12 -4 -19 -1 -8 3 -5 6 6 6 11 1 17 -2 13 -5z m77 -20 c26 -9 45 -18 43 -20
-2 -2 -28 5 -58 15 -30 11 -49 20 -43 20 6 1 32 -6 58 -15z m201 -84 c3 -6 -1
-7 -9 -4 -18 7 -21 14 -7 14 6 0 13 -4 16 -10z m-2815 -26 c43 -13 67 -29 120
-82 101 -103 180 -274 226 -490 15 -72 16 -85 3 -93 -35 -22 -45 -11 -58 67
-30 179 -116 373 -213 478 -60 66 -86 85 -163 118 l-40 17 36 0 c19 1 60 -6
89 -15z m2946 -55 c3 -6 -5 -3 -20 6 -14 10 -26 19 -26 22 0 7 39 -17 46 -28z
m12446 -21 c162 -190 253 -398 278 -632 13 -118 3 -254 -28 -386 l-18 -75 -28
75 c-48 125 -105 226 -167 293 -57 63 -192 163 -277 206 -48 24 -47 6 -6 169
35 137 79 243 136 328 27 41 53 74 58 74 4 0 28 -24 52 -52z m-11701 -125 c42
-87 122 -194 213 -283 31 -30 56 -60 56 -67 0 -14 -89 -139 -97 -136 -3 0 -85
70 -184 155 -157 134 -178 156 -175 178 3 14 33 83 67 154 57 117 64 127 72
105 6 -13 27 -61 48 -106z m-680 100 c13 -16 12 -17 -3 -4 -17 13 -22 21 -14
21 2 0 10 -8 17 -17z m-3136 -48 c30 -30 31 -54 4 -89 -15 -19 -30 -26 -55
-26 -69 0 -101 78 -48 119 35 28 69 26 99 -4z m12552 -29 c3 -3 -32 -94 -39
-101 -5 -6 -87 11 -182 36 l-39 11 74 42 74 42 55 -14 c30 -8 56 -15 57 -16z
m4211 -200 c243 -144 523 -299 787 -436 226 -117 412 -214 414 -216 7 -6 148
-674 142 -674 -3 0 -61 37 -129 82 -120 80 -123 81 -141 62 -10 -10 -62 -70
-116 -132 l-98 -113 20 -27 c10 -15 66 -94 123 -177 56 -82 106 -154 111 -159
4 -5 39 20 77 54 60 53 79 79 128 173 l58 111 18 -84 19 -85 -42 -460 -41
-460 -62 -87 -61 -87 -7 37 c-4 20 -7 55 -8 77 -3 85 9 88 -275 -74 l-260
-149 2 -113 c2 -63 5 -164 9 -226 l6 -111 56 -9 c32 -4 56 -12 54 -18 -1 -5
-55 -84 -119 -174 -86 -121 -125 -167 -148 -177 -40 -16 -587 -214 -593 -214
-2 0 5 8 17 18 21 17 21 17 -71 110 -50 51 -96 91 -102 89 -6 -3 -47 -33 -91
-67 -54 -42 -99 -88 -142 -147 -34 -47 -60 -89 -58 -93 2 -4 25 -13 51 -20 30
-9 41 -16 32 -20 -7 -5 -102 -40 -211 -79 l-199 -71 -96 16 c-53 9 -98 18
-100 19 -2 2 22 17 52 35 31 17 56 35 56 38 0 4 -61 102 -135 217 -116 181
-138 210 -158 207 -62 -9 -472 -84 -478 -88 -4 -2 -33 -68 -64 -147 l-57 -143
-537 83 c-295 46 -616 96 -714 111 l-178 27 -229 180 c-126 99 -229 183 -229
186 -1 3 32 11 72 18 362 59 952 277 1366 505 l119 65 220 -73 221 -74 5 36
c16 106 47 419 43 439 -3 18 10 36 57 80 103 98 254 262 355 388 53 66 109
136 124 155 15 19 -23 -41 -84 -134 -62 -94 -114 -177 -116 -185 -3 -15 23
-33 249 -164 l67 -39 180 57 179 57 97 -22 c53 -12 98 -20 99 -18 2 1 -20 88
-48 193 l-51 190 -230 80 c-127 45 -238 84 -248 88 -15 6 -8 21 51 109 156
233 302 509 388 730 27 70 54 128 59 128 6 0 135 -45 288 -101 153 -56 280
-99 283 -97 2 3 -45 149 -104 324 -91 265 -115 326 -143 358 l-35 39 -84 -16
c-47 -8 -86 -14 -88 -13 -1 2 5 60 13 130 8 70 18 187 21 261 4 74 9 135 11
135 2 0 174 -101 381 -224z m-13448 129 c13 -14 21 -25 18 -25 -2 0 -15 11
-28 25 -13 14 -21 25 -18 25 2 0 15 -11 28 -25z m-1418 -33 l86 -17 215 -205
c118 -113 215 -207 216 -210 1 -3 -21 -24 -48 -47 l-48 -42 -64 39 c-35 22
-67 39 -71 40 -4 0 -9 -26 -13 -57 -3 -32 -8 -70 -11 -85 -4 -21 -1 -28 18
-33 22 -8 22 -8 -12 -36 -19 -16 -39 -29 -46 -29 -22 0 -150 128 -208 210 -86
119 -121 227 -141 438 -6 62 -6 63 17 57 13 -3 62 -13 110 -23z m7688 -167
c56 -81 151 -175 298 -293 79 -63 140 -118 135 -122 -6 -7 -104 -39 -380 -125
-13 -4 -63 125 -99 260 -31 119 -54 279 -53 385 l0 85 34 -72 c18 -40 48 -93
65 -118z m-9550 155 c0 -11 -6 -20 -14 -20 -18 0 -29 16 -21 30 11 18 35 11
35 -10z m3350 -15 c13 -14 21 -25 18 -25 -2 0 -15 11 -28 25 -13 14 -21 25
-18 25 2 0 15 -11 28 -25z m6038 -132 c16 -198 61 -395 127 -554 5 -14 -19
-23 -162 -58 -92 -22 -208 -49 -256 -60 l-89 -19 -23 52 c-58 130 -111 360
-122 521 l-6 90 254 86 c140 48 256 87 259 88 3 0 11 -65 18 -146z m-5977 80
c13 -16 12 -17 -3 -4 -17 13 -22 21 -14 21 2 0 10 -8 17 -17z m50 -40 c13 -16
12 -17 -3 -4 -17 13 -22 21 -14 21 2 0 10 -8 17 -17z m114 -93 c10 -11 16 -20
13 -20 -3 0 -13 9 -23 20 -10 11 -16 20 -13 20 3 0 13 -9 23 -20z m5215 -24
c0 -126 54 -394 110 -548 17 -45 29 -82 27 -84 -1 -1 -24 -6 -52 -12 l-50 -11
-55 53 c-80 78 -155 133 -230 171 -76 38 -189 75 -231 75 -22 0 -32 6 -39 25
-12 32 -36 242 -28 250 3 3 90 21 194 41 104 19 221 43 259 53 97 26 95 26 95
-13z m-5140 -41 c13 -14 21 -25 18 -25 -2 0 -15 11 -28 25 -13 14 -21 25 -18
25 2 0 15 -11 28 -25z m-4627 -348 l25 -98 -67 -89 c-83 -110 -125 -196 -140
-281 -40 -238 40 -484 231 -709 l70 -81 -91 -99 c-50 -54 -91 -102 -91 -107 0
-6 639 -355 680 -371 4 -1 32 68 62 155 l55 158 76 12 c42 7 134 34 204 59
184 65 341 104 423 104 139 0 104 -14 -124 -52 l-229 -37 -141 -66 c-194 -91
-191 -89 -191 -122 0 -31 -10 -26 235 -109 l145 -49 195 -5 195 -5 -105 -23
c-230 -51 -331 -82 -422 -129 -121 -61 -148 -80 -148 -103 0 -24 37 -49 91
-61 22 -5 82 -26 132 -46 l92 -37 235 -4 235 -4 -145 -43 c-80 -24 -170 -50
-200 -59 -54 -15 -287 -146 -302 -169 -16 -25 -7 -48 25 -62 76 -33 227 -68
327 -76 107 -7 236 6 1210 125 157 19 191 20 227 10 73 -22 241 -37 331 -30
175 15 368 83 463 164 41 35 50 38 218 68 97 18 177 31 178 30 0 0 -24 -126
-54 -278 l-56 -278 -103 -75 c-57 -41 -104 -73 -104 -70 0 2 23 70 50 151 28
81 48 149 45 152 -9 10 -280 60 -286 53 -4 -3 -23 -52 -43 -109 -33 -94 -36
-112 -36 -213 0 -81 3 -109 13 -109 6 0 61 14 121 30 61 16 111 28 112 27 4
-4 -790 -585 -795 -581 -2 2 22 51 54 110 31 58 53 110 48 114 -4 4 -122 51
-262 105 -218 84 -257 96 -274 86 -42 -27 -387 -343 -387 -355 0 -14 110 -439
115 -444 3 -3 208 42 243 53 6 3 12 3 12 1 0 -9 -296 -220 -320 -228 -14 -5
-240 -45 -503 -89 l-479 -80 -616 -14 c-339 -8 -723 -15 -852 -15 l-235 0
-357 84 -357 83 -243 234 -243 234 -184 285 -184 285 -35 595 -34 595 323 494
324 494 425 434 425 435 344 203 345 203 27 -132 c15 -72 38 -175 52 -229z
m4707 278 c13 -14 21 -25 18 -25 -2 0 -15 11 -28 25 -13 14 -21 25 -18 25 2 0
15 -11 28 -25z m4453 -67 c9 -131 42 -292 88 -427 22 -64 42 -125 45 -136 5
-19 -10 -23 -233 -68 -131 -26 -241 -47 -244 -47 -10 0 -60 117 -96 225 -40
117 -70 259 -79 371 l-7 82 74 12 c41 7 153 27 249 45 96 18 180 33 186 34 7
1 13 -33 17 -91z m-4056 43 c46 -80 102 -247 79 -234 -27 16 -195 148 -196
154 0 9 80 119 88 119 4 0 17 -18 29 -39z m-317 -46 c13 -14 21 -25 18 -25 -2
0 -15 11 -28 25 -13 14 -21 25 -18 25 2 0 15 -11 28 -25z m3784 -27 c2 -7 9
-64 15 -126 14 -135 58 -311 110 -442 l38 -95 -29 -8 c-16 -4 -64 -7 -106 -5
l-77 3 -40 76 c-82 151 -213 291 -343 364 -76 43 -71 35 -87 138 l-5 34 124
17 c69 10 173 26 233 36 132 22 163 24 167 8z m-3709 -38 c10 -11 16 -20 13
-20 -3 0 -13 9 -23 20 -10 11 -16 20 -13 20 3 0 13 -9 23 -20z m3129 -52 c3
-13 6 -35 6 -50 l0 -26 -47 14 c-112 34 -213 36 -213 4 0 -5 18 -29 40 -55 89
-103 161 -263 176 -393 l6 -58 -138 -12 c-77 -7 -157 -15 -180 -18 l-41 -6
-16 83 c-22 115 -37 271 -37 394 l0 102 108 8 c88 6 172 15 318 34 7 0 14 -9
18 -21z m-3043 -25 c13 -16 12 -17 -3 -4 -17 13 -22 21 -14 21 2 0 10 -8 17
-17z m2536 -40 c-9 -52 10 -307 29 -417 24 -131 24 -131 -11 -134 -22 -2 -44
8 -84 38 -29 22 -66 48 -81 56 l-27 17 43 112 c23 63 57 164 74 227 17 62 33
119 35 126 3 6 10 12 16 12 8 0 10 -12 6 -37z m-2472 -13 c10 -11 16 -20 13
-20 -3 0 -13 9 -23 20 -10 11 -16 20 -13 20 3 0 13 -9 23 -20z m2945 -22 c180
-56 343 -183 455 -358 49 -75 107 -199 119 -257 8 -36 11 -35 -139 -54 -107
-14 -245 -6 -333 18 l-64 18 -3 130 c-2 96 -8 149 -24 203 -27 93 -87 213
-141 281 l-42 53 53 -7 c30 -4 83 -16 119 -27z m1462 -28 c243 -88 473 -346
593 -665 34 -88 33 -101 -7 -109 -69 -12 -216 -26 -281 -26 -103 0 -296 46
-330 79 -4 4 0 50 9 102 12 69 15 126 11 214 -8 173 -43 284 -123 398 l-34 47
42 -6 c24 -4 78 -19 120 -34z m-4351 3 c13 -16 12 -17 -3 -4 -10 7 -18 15 -18
17 0 8 8 3 21 -13z m50 -40 c13 -16 12 -17 -3 -4 -17 13 -22 21 -14 21 2 0 10
-8 17 -17z m99 -139 c0 -14 -179 -164 -195 -164 -15 0 -113 202 -100 207 6 2
41 21 80 42 l69 39 73 -56 c40 -31 73 -62 73 -68z m-49 99 c13 -16 12 -17 -3
-4 -17 13 -22 21 -14 21 2 0 10 -8 17 -17z m4178 -122 c12 -35 21 -69 20 -75
0 -12 -63 144 -73 184 -12 47 31 -42 53 -109z m1958 56 c150 -86 505 -270 615
-318 43 -19 74 -37 70 -40 -6 -6 -254 -67 -339 -84 l-33 -7 0 121 c0 101 -2
121 -15 121 -15 0 -188 -24 -252 -35 -27 -5 -33 -11 -33 -31 0 -23 -6 -19 -76
41 -90 79 -199 151 -277 185 -31 14 -57 27 -57 30 0 6 237 88 257 89 7 1 70
-32 140 -72z m-6096 36 c13 -16 12 -17 -3 -4 -17 13 -22 21 -14 21 2 0 10 -8
17 -17z m-4867 -58 c69 -33 93 -129 58 -230 -24 -69 -109 -210 -157 -261 -132
-138 -306 -18 -266 183 42 215 229 372 365 308z m10526 -22 c69 -23 178 -80
250 -131 90 -63 253 -230 328 -337 77 -109 173 -298 175 -345 2 -34 1 -34 -48
-42 -239 -34 -437 -28 -578 19 -93 32 -89 20 -62 153 14 66 16 114 12 215 -8
200 -56 336 -156 447 l-44 50 39 -8 c21 -3 59 -13 84 -21z m-90 -60 c38 -47
93 -161 110 -228 6 -27 15 -83 19 -122 l7 -73 -116 0 c-63 0 -164 5 -225 10
-152 14 -533 62 -543 69 -19 13 -100 183 -88 186 6 2 76 18 156 35 166 36 464
110 560 139 36 11 70 20 77 20 6 1 26 -16 43 -36z m5269 -100 c43 -163 54
-229 54 -348 1 -254 -81 -423 -321 -667 -53 -54 -99 -98 -103 -98 -3 0 3 33
14 73 13 46 21 118 24 202 4 118 3 137 -20 208 -25 77 -76 171 -139 255 l-32
43 24 46 c34 61 149 184 224 237 76 54 208 121 247 125 4 1 16 -34 28 -76z
m-8662 -122 c43 -32 103 -84 133 -115 63 -65 69 -54 -75 -140 -114 -67 -202
-102 -302 -119 -63 -11 -79 -11 -81 -1 -2 7 27 60 65 117 37 57 91 152 118
210 28 58 53 106 57 107 3 0 42 -26 85 -59z m-2517 35 c0 -2 -64 -32 -142 -66
-134 -60 -142 -62 -155 -45 -7 11 -13 24 -13 30 0 6 64 27 143 47 144 36 167
41 167 34z m-1052 -60 c82 -42 142 -124 142 -192 0 -79 -74 -140 -159 -132
-69 7 -255 93 -292 136 -28 32 -31 40 -27 89 7 79 48 119 137 132 62 9 143 -4
199 -33z m5519 8 c-3 -3 -12 -4 -19 -1 -8 3 -5 6 6 6 11 1 17 -2 13 -5z m-204
-21 c-7 -2 -21 -2 -30 0 -10 3 -4 5 12 5 17 0 24 -2 18 -5z m94 1 c-3 -3 -12
-4 -19 -1 -8 3 -5 6 6 6 11 1 17 -2 13 -5z m146 -21 c-7 -2 -21 -2 -30 0 -10
3 -4 5 12 5 17 0 24 -2 18 -5z m-5251 -122 l3 -40 -27 32 c-34 40 -34 47 -4
47 21 0 24 -6 28 -39z m8342 -67 c82 -27 202 -95 306 -173 99 -73 331 -305
407 -406 79 -105 168 -253 159 -263 -4 -4 -76 -7 -159 -6 -212 1 -298 24 -480
131 l-78 45 7 58 c8 73 -17 200 -56 286 -37 82 -101 180 -184 282 l-68 83 39
-6 c21 -4 69 -18 107 -31z m-5028 -109 c69 -166 -111 -383 -459 -552 -98 -48
-159 -70 -245 -88 -77 -16 -192 -20 -192 -7 1 4 26 25 57 47 94 67 293 317
266 333 -8 5 17 43 75 114 52 63 90 102 94 95 15 -25 256 29 344 76 40 22 43
21 60 -18z m-677 -377 c-105 -135 -171 -196 -274 -252 -27 -15 -39 -19 -25 -9
76 55 205 171 260 233 69 78 89 92 39 28z m8016 -50 c-15 -68 -67 -197 -110
-273 -121 -212 -344 -444 -580 -602 -66 -44 -197 -114 -203 -108 -2 2 32 71
77 153 147 271 181 369 181 523 l0 87 43 37 c129 112 383 213 535 214 l64 1
-7 -32z m-4197 -202 c290 -68 709 -174 931 -236 l402 -111 179 -110 179 -110
193 -200 193 -201 119 -291 119 -292 42 -357 42 -357 -29 -183 c-15 -100 -30
-183 -31 -185 -2 -1 -32 65 -67 148 -35 82 -67 148 -71 147 -4 -2 -89 -95
-187 -207 l-180 -204 28 -76 c15 -42 49 -135 75 -207 l48 -130 54 4 54 5 -56
-89 c-30 -49 -153 -220 -272 -381 l-218 -291 -372 -151 c-317 -129 -699 -265
-712 -255 -2 2 36 48 85 101 48 54 96 107 106 119 18 20 17 22 -167 188 l-185
167 -204 -107 -204 -106 -6 -77 c-3 -42 -8 -142 -12 -222 l-6 -146 68 -6 c38
-4 89 -7 114 -7 92 -1 72 -16 -85 -65 l-156 -49 -412 53 -412 53 -530 160
c-821 247 -762 223 -1093 440 l-279 183 -135 281 -135 280 -73 307 -74 307
122 541 121 542 53 54 c29 29 56 53 60 53 4 0 -2 -21 -12 -46 -11 -25 -20 -49
-20 -53 0 -7 86 -46 167 -78 11 -5 73 91 73 114 0 6 -31 34 -70 63 -38 29 -70
55 -70 59 0 4 132 131 293 281 l293 275 435 269 434 269 440 123 c242 67 450
123 462 123 13 1 260 -55 551 -123z m-9423 -34 c9 -26 19 -87 22 -135 l6 -88
-39 6 c-21 4 -77 22 -124 40 -47 18 -110 38 -140 45 -30 7 -66 18 -80 25 l-25
13 30 12 c17 7 86 39 155 71 121 56 158 69 172 62 3 -2 14 -24 23 -51z m5185
-315 c0 -2 -5 -30 -11 -63 -26 -150 -101 -313 -184 -401 l-53 -55 -73 7 c-144
13 -245 -22 -346 -120 -35 -33 -63 -58 -63 -55 1 19 34 144 51 190 89 241 306
434 544 484 65 13 135 20 135 13z m-5100 -86 c20 -39 41 -154 35 -193 -7 -37
-8 -38 -46 -38 -22 0 -81 15 -132 34 -51 19 -118 41 -149 50 -32 9 -58 21 -58
25 0 10 179 104 240 127 53 19 97 17 110 -5z m3729 -105 c-2 -2 -32 -15 -67
-29 -46 -19 -72 -24 -100 -19 -35 6 -32 7 53 28 90 22 122 28 114 20z m3211
-139 c-19 -19 -142 -134 -273 -256 l-237 -223 -298 -11 -297 -10 -83 42 c-97
49 -99 40 22 138 147 117 342 221 511 272 72 21 266 63 271 59 1 -2 -67 -39
-152 -82 -173 -89 -169 -78 -62 -144 l68 -42 90 135 c61 91 97 136 113 140 35
8 101 11 237 13 l125 2 -35 -33z m-6837 -175 c30 -33 57 -108 59 -168 l3 -59
-65 0 c-82 0 -320 61 -320 82 0 11 208 130 257 148 49 18 47 18 66 -3z m3677
-269 c-26 -76 -62 -199 -81 -273 -18 -74 -36 -137 -39 -140 -4 -3 -18 -90 -30
-195 -62 -510 -2 -1010 165 -1360 50 -103 148 -261 241 -386 92 -125 93 -123
-48 -174 l-117 -42 -1363 -43 -1363 -43 -357 234 -357 234 -154 165 -154 165
412 41 c227 23 420 44 428 47 13 5 410 254 967 607 102 65 385 240 630 390
245 149 452 279 461 288 9 10 49 103 89 207 39 105 75 195 79 202 3 6 4 -24 2
-68 -1 -43 0 -79 4 -79 25 0 252 64 261 73 7 7 31 71 54 142 24 72 43 131 44
132 1 1 36 -5 79 -13 74 -14 81 -14 130 5 29 11 55 20 58 20 4 1 -15 -61 -41
-136z m1836 -150 c35 -26 64 -50 64 -54 0 -4 -16 -26 -35 -49 -19 -23 -35 -44
-35 -47 0 -4 213 -273 250 -316 4 -4 53 4 110 18 56 14 104 25 105 23 2 -2
-28 -142 -66 -313 l-69 -310 -153 -152 -152 -153 -55 15 c-30 8 -64 15 -75 15
-31 0 -112 -151 -130 -241 l-13 -72 -148 -148 -148 -149 -19 48 c-34 84 -76
269 -88 383 -35 354 141 917 418 1332 64 96 158 217 169 217 4 0 35 -21 70
-47z m7008 -132 c3 -5 -22 -82 -55 -171 -34 -89 -59 -163 -58 -164 2 -2 94
-28 205 -58 198 -53 201 -54 239 -38 l39 16 59 -65 c33 -36 64 -69 71 -72 6
-4 295 -88 641 -187 560 -160 652 -184 830 -213 110 -18 202 -34 204 -36 3 -2
-20 -53 -50 -114 l-54 -111 -183 -114 -182 -114 -66 33 -66 32 -69 -73 c-42
-46 -79 -96 -95 -133 l-27 -60 -231 -144 c-189 -118 -240 -145 -281 -150 -57
-8 -57 -9 34 60 60 45 63 49 45 63 -93 70 -423 302 -430 302 -11 0 -487 -150
-492 -154 -2 -2 -10 -84 -17 -182 -9 -103 -20 -181 -26 -185 -6 -3 -64 -12
-129 -18 l-118 -12 -293 61 c-162 34 -302 64 -311 66 -14 4 7 42 113 200 l130
195 9 312 c5 172 9 313 10 314 0 1 23 3 52 5 29 2 53 8 55 15 3 7 -22 25 -54
42 l-59 29 -64 364 c-44 254 -70 377 -86 408 l-22 45 292 -3 c234 -2 414 4
478 17 4 0 9 -3 12 -8z m-8074 -147 c0 -60 -37 -246 -66 -335 -28 -85 -41
-109 -63 -122 -39 -23 -180 -172 -232 -246 -41 -58 -44 -61 -47 -36 -6 44 27
240 54 322 57 173 158 317 278 395 66 42 76 45 76 22z m-12 -1149 c102 -24
170 -63 247 -140 74 -73 157 -207 119 -190 -10 5 -53 10 -94 12 -71 4 -79 2
-160 -37 l-85 -42 -21 28 c-36 45 -110 194 -143 287 -17 49 -31 90 -31 93 0
10 110 2 168 -11z m1539 -247 c6 -7 17 -44 26 -83 11 -48 59 -158 155 -355
l139 -285 134 -90 c74 -49 127 -91 119 -92 -8 -2 -93 -20 -189 -41 l-173 -37
-23 -60 -22 -60 -49 2 c-116 6 -242 -26 -334 -83 l-35 -21 -65 49 c-103 77
-237 196 -277 245 l-36 44 45 46 46 46 74 -12 c126 -20 139 4 45 80 -32 26
-94 66 -137 90 -44 24 -78 47 -77 50 5 14 603 578 613 578 6 1 16 -5 21 -11z
m-742 -574 c69 -17 198 -84 273 -139 28 -22 50 -40 49 -42 -2 -1 -34 3 -72 9
-125 19 -227 -7 -318 -80 l-39 -31 -46 23 c-26 14 -66 40 -88 60 -66 57 -138
175 -106 176 4 0 39 9 77 20 86 23 191 25 270 4z m1948 -709 l99 -42 -81 -33
c-74 -29 -82 -31 -96 -16 -20 20 -22 20 -75 1 -31 -11 -61 -13 -108 -9 l-64 7
56 34 c31 19 56 39 56 44 0 6 -34 59 -76 120 l-76 110 133 -87 c74 -48 178
-106 232 -129z m-972 129 c24 -5 19 -10 -53 -47 -94 -48 -177 -126 -204 -191
-21 -51 -15 -50 -111 -14 -63 23 -177 104 -167 119 9 15 135 96 171 110 74 31
131 39 233 34 58 -3 117 -8 131 -11z m819 -291 c-43 -67 -70 -146 -77 -222 -3
-36 -11 -69 -17 -73 -26 -18 -223 8 -249 31 -4 4 14 41 41 82 50 76 108 132
171 164 26 13 145 62 158 65 2 0 -11 -21 -27 -47z"/>
<path d="M24643 10874 c-73 -12 -137 -25 -143 -29 -33 -20 0 -37 206 -105 119
-39 218 -69 221 -67 3 4 -129 201 -146 218 -3 3 -65 -4 -138 -17z"/>
<path d="M24575 9210 c-60 -54 -111 -102 -112 -107 -4 -10 356 -158 364 -149
5 5 -123 332 -136 348 -3 3 -55 -38 -116 -92z"/>
<path d="M21945 8658 c-55 -16 -131 -39 -170 -50 l-70 -20 70 -64 c39 -35 72
-64 75 -64 3 0 57 52 120 115 79 80 109 115 95 114 -11 -1 -65 -14 -120 -31z"/>
<path d="M5957 10992 c-42 -42 -77 -80 -77 -84 0 -10 109 -88 113 -80 14 22
68 223 62 232 -11 17 -18 12 -98 -68z"/>
<path d="M5368 10373 l-146 -148 55 -145 c31 -80 56 -146 57 -146 3 -4 318
-25 322 -22 6 6 136 489 132 493 -1 1 -59 26 -128 55 -69 28 -130 54 -135 56
-6 2 -76 -62 -157 -143z"/>
<path d="M4681 9629 c-7 -55 -10 -103 -8 -106 3 -2 56 -5 118 -6 l113 -2 12
40 c6 22 14 54 18 71 l7 31 -109 31 c-60 17 -116 34 -124 37 -12 5 -17 -13
-27 -96z"/>
<path d="M5166 9163 c-7 -25 -36 -196 -33 -198 8 -7 317 -14 317 -8 -1 5 -13
39 -28 76 l-27 69 -105 39 c-58 21 -108 39 -112 39 -4 0 -9 -8 -12 -17z"/>
<path d="M6556 9065 l-56 -85 147 0 147 0 -35 36 c-18 20 -59 58 -90 85 l-56
49 -57 -85z"/>
<path d="M6036 9055 c-104 -36 -191 -66 -193 -69 -3 -2 -15 -45 -27 -94 l-23
-89 114 -137 c73 -87 118 -134 126 -129 17 9 270 185 279 192 4 4 -6 83 -22
176 -37 212 -38 215 -53 214 -6 0 -97 -29 -201 -64z"/>
<path d="M7692 8824 c-29 -59 -52 -108 -50 -109 2 -1 91 23 198 54 174 50 195
58 198 79 2 12 1 22 -2 22 -4 0 -67 14 -141 30 -74 17 -138 30 -143 30 -4 0
-31 -48 -60 -106z"/>
<path d="M6476 8057 c-40 -43 -122 -254 -105 -271 2 -2 106 -63 230 -134 l226
-129 159 57 c113 40 158 61 156 71 -7 27 -143 314 -155 325 -22 21 -394 114
-454 114 -16 0 -37 -12 -57 -33z"/>
<path d="M5390 7880 c0 -92 3 -120 13 -120 7 0 51 13 97 29 96 32 95 30 60
122 l-20 55 -67 17 c-38 9 -71 17 -75 17 -5 0 -8 -54 -8 -120z"/>
<path d="M7707 7760 l-47 -60 45 -22 45 -22 77 19 76 19 -68 63 c-37 35 -71
63 -75 63 -4 0 -28 -27 -53 -60z"/>
<path d="M17420 11174 c-58 -30 -108 -58 -113 -63 -4 -4 56 -38 133 -75 78
-37 144 -65 147 -62 6 5 -47 236 -56 248 -4 4 -53 -18 -111 -48z"/>
<path d="M16848 9957 c-31 -94 -56 -172 -54 -174 4 -4 229 26 234 32 5 5 -105
295 -117 307 -3 3 -32 -71 -63 -165z"/>
<path d="M17368 9574 c-115 -57 -208 -106 -208 -109 0 -3 36 -77 80 -165 75
-151 81 -159 112 -164 66 -11 648 -57 673 -54 25 3 17 16 -160 268 -176 252
-241 330 -275 329 -8 0 -108 -47 -222 -105z"/>
<path d="M15736 9502 c-43 -26 -79 -51 -78 -57 1 -15 55 -105 63 -105 11 0
115 186 111 198 -6 18 -10 16 -96 -36z"/>
<path d="M18368 9153 c-26 -93 -46 -168 -45 -169 1 0 76 -46 167 -102 91 -55
172 -103 180 -107 13 -4 22 25 49 167 19 95 34 177 35 181 1 9 -313 196 -330
197 -5 0 -31 -75 -56 -167z"/>
<path d="M15110 9101 l-145 -87 3 -85 c1 -46 5 -114 8 -150 l6 -66 120 -52
c80 -35 124 -49 131 -42 5 5 59 96 119 203 l109 193 -93 87 c-51 48 -97 87
-103 87 -5 0 -75 -39 -155 -88z"/>
<path d="M19019 9043 c-13 -37 -25 -70 -27 -74 -2 -3 20 -25 47 -49 l51 -42
52 18 c29 9 55 18 57 20 5 5 -140 194 -148 194 -4 0 -18 -30 -32 -67z"/>
<path d="M16390 8685 c-155 -102 -264 -180 -264 -189 2 -15 431 -516 443 -516
7 1 226 336 236 362 4 9 -28 126 -70 259 -41 134 -77 247 -78 251 -1 4 -121
-71 -267 -167z"/>
<path d="M18075 8443 c-138 -69 -141 -71 -134 -77 6 -6 470 -29 475 -23 7 6
-186 167 -200 166 -6 0 -69 -30 -141 -66z"/>
<path d="M19576 8211 c-61 -61 -85 -92 -75 -95 8 -3 54 -11 103 -19 l88 -14
-7 84 c-12 149 -7 147 -109 44z"/>
<path d="M14618 7995 c-21 -47 -38 -89 -38 -93 0 -4 52 -28 117 -52 64 -25
120 -47 125 -49 6 -2 7 28 3 70 l-6 74 -72 67 c-40 37 -76 68 -82 68 -5 0 -27
-39 -47 -85z"/>
<path d="M15264 7733 l-120 -4 -43 -79 -42 -79 51 -142 c27 -78 54 -147 58
-154 5 -9 41 1 142 37 74 27 138 52 142 56 6 6 48 316 48 356 0 13 -11 16 -57
14 -32 -1 -112 -4 -179 -5z"/>
<path d="M17336 7513 c-31 -125 -59 -235 -61 -243 -4 -13 28 -26 158 -63 89
-26 167 -47 173 -47 6 0 74 45 150 100 l139 100 87 0 c64 0 88 3 88 13 0 6
-45 84 -99 172 l-99 160 -158 11 c-88 7 -196 15 -240 18 l-81 7 -57 -228z"/>
<path d="M15732 7604 c-34 -31 -62 -59 -62 -63 0 -8 219 -86 225 -80 2 3 -20
48 -48 101 l-53 97 -62 -55z"/>
<path d="M18666 7304 c-37 -69 -67 -127 -65 -129 8 -7 359 -48 365 -42 5 4
-220 297 -229 297 -1 0 -33 -57 -71 -126z"/>
<path d="M16566 7073 c-36 -43 -66 -81 -66 -85 0 -5 90 -8 200 -8 110 0 200 2
200 4 0 5 -255 166 -263 166 -3 0 -35 -35 -71 -77z"/>
<path d="M14540 6958 c0 -2 -13 -50 -30 -108 -16 -58 -30 -106 -30 -108 0 -1
39 -1 87 0 l87 3 -3 70 c-2 62 -5 72 -29 92 -29 23 -82 56 -82 51z"/>
<path d="M15394 6698 c-43 -37 -136 -175 -132 -194 2 -7 68 -92 148 -190 l145
-177 140 8 c77 3 141 8 143 10 6 6 -38 349 -45 356 -66 59 -317 219 -345 219
-9 0 -34 -15 -54 -32z"/>
<path d="M18564 6444 c-42 -64 -65 -113 -86 -186 -17 -54 -28 -101 -26 -103 2
-2 53 -5 113 -6 l110 -2 26 39 c15 21 52 78 83 126 l56 88 -23 14 c-42 27
-152 93 -174 105 -22 11 -26 7 -79 -75z"/>
<path d="M16307 6108 l-48 -41 32 -33 c31 -32 38 -34 96 -34 l63 0 -37 75
c-21 41 -42 75 -48 75 -5 -1 -32 -19 -58 -42z"/>
<path d="M10952 7529 c-35 -45 -61 -83 -59 -86 3 -2 96 10 206 28 172 29 201
36 201 51 0 12 -12 20 -37 27 -71 19 -242 61 -245 61 -2 0 -31 -37 -66 -81z"/>
<path d="M8746 7096 l-99 -21 -14 -41 -14 -41 66 -96 c36 -54 70 -97 75 -97
11 0 189 132 189 141 2 18 -81 179 -91 178 -7 0 -58 -11 -112 -23z"/>
<path d="M9580 6859 c-94 -77 -170 -143 -170 -147 0 -4 87 -64 193 -134 l193
-128 160 0 160 0 187 151 c103 83 187 154 187 157 0 4 -51 37 -113 75 l-112
67 -240 45 c-132 25 -248 47 -258 49 -12 3 -76 -44 -187 -135z"/>
<path d="M11070 6674 c-80 -58 -146 -109 -148 -113 -3 -8 196 -46 203 -39 9 9
102 258 96 258 -4 0 -72 -48 -151 -106z"/>
<path d="M13417 8167 c-31 -66 -55 -122 -53 -125 7 -7 446 31 446 38 0 5 -294
189 -330 206 -3 1 -31 -52 -63 -119z"/>
<path d="M21090 7864 c-101 -36 -186 -67 -188 -69 -3 -2 7 -23 21 -47 13 -24
48 -98 77 -165 29 -68 56 -123 60 -123 6 0 230 453 230 465 0 9 -11 5 -200
-61z"/>
</g>
</svg>
